<svg id="Capa_1" data-name="Capa 1" xmlns="http://www.w3.org/2000/svg" viewBox="0 0 436.4 210.8"><defs><style>.cls-1{fill:#fff;}</style></defs><title>logo</title><path class="cls-1" d="M128.9,175.6H58.8L61,160H84.3L99.7,50.9h-31L46.8,206.8H0L24.1,35.3H148.6Z"/><path class="cls-1" d="M308.4,175.6H184L203.6,35.3H328.1ZM263.8,160,279.2,50.9h-31L232.8,160Z"/><path class="cls-1" d="M412.3,175.6H365.6L385.3,35.3h46.6ZM433.2,27.4H386.3l3.4-23.1h46.6Z"/><path class="cls-1" d="M256.7,210.8A105.4,105.4,0,1,1,362.1,105.4,105.5,105.5,0,0,1,256.7,210.8ZM256.7,8a97.4,97.4,0,1,0,97.4,97.4A97.5,97.5,0,0,0,256.7,8Z"/><circle class="cls-1" cx="330.8" cy="33.8" r="15.5"/><circle class="cls-1" cx="176.9" cy="174.8" r="15.5"/></svg>